#!OML:ASF G:\JayActor3\Patient Classification 1\Patient 1\Session 5\male.ASF
:FULLY-SPECIFIED
:DEGREES
1020
root -57.7283 17.2176 -7.44858 1617.21 -75.9758 -1616.01
lowerback -2.44067 -0.675809 1.33219
upperback 0.10423 -0.924182 -2.12911
thorax 1.41916 -0.451499 -2.96772
lowerneck -5.06681 -1.29459 0.638102
upperneck 6.62145 -2.17431 4.33178
head 3.05926 -0.934777 1.20276
rclavicle -1.46278e-014 2.38542e-015
rhumerus -34.0837 -5.85096 -88.4699
rradius 25.2293
rwrist 10.7872
rhand -24.8861 -9.45664
rfingers 7.12502
rthumb 1.62158 -39.4302
lclavicle -1.46278e-014 2.38542e-015
lhumerus -31.6133 13.5512 75.3778
lradius 20.0052
lwrist 12.7217
lhand -15.4811 28.6228
lfingers 7.12502
lthumb 10.7007 58.3303
rfemur -13.4126 -1.6077 21.2685
rtibia 64.836
rfoot -0.126294 -14.2487
rtoes 13.6113
lfemur -9.80329 11.8239 -21.6274
ltibia 18.138
lfoot -13.7465 9.28416
ltoes -42.3805
1021
root -57.8135 17.207 -7.45603 1617.55 -75.739 -1616.19
lowerback -2.50587 -0.792496 1.1389
upperback 0.157791 -1.07426 -2.07078
thorax 1.50607 -0.526539 -2.80565
lowerneck -5.00242 -1.30861 0.548991
upperneck 6.3775 -2.18377 4.47142
head 2.96811 -0.941643 1.2627
rclavicle -8.81796e-015 -2.22639e-014
rhumerus -34.1058 -5.63467 -88.4749
rradius 25.0329
rwrist 12.2802
rhand -26.3981 -9.13821
rfingers 7.12502
rthumb 0.161252 -39.1179
lclavicle -8.81796e-015 -2.22639e-014
lhumerus -31.0977 13.3233 75.6495
lradius 20.014
lwrist 12.9326
lhand -15.3265 28.4583
lfingers 7.12502
lthumb 10.8499 58.158
rfemur -14.8142 -1.63683 21.2621
rtibia 65.4377
rfoot -1.64684 -13.413
rtoes 11.6259
lfemur -9.7378 11.9351 -21.7529
ltibia 18.0357
lfoot -13.3119 9.72815
ltoes -42.4613
1022
root -57.8964 17.1953 -7.46423 1618.03 -75.479 -1616.54
lowerback -2.49969 -0.909164 0.91669
upperback 0.155984 -1.22407 -2.02938
thorax 1.49767 -0.603508 -2.64306
lowerneck -4.81817 -1.29532 0.42542
upperneck 6.11813 -2.15624 4.66984
head 2.8504 -0.931561 1.3495
rclavicle 2.69726e-014 -1.90833e-014
rhumerus -34.187 -5.42053 -88.4803
rradius 24.7816
rwrist 13.7948
rhand -27.7841 -8.86763
rfingers 7.12502
rthumb -1.17744 -38.8441
lclavicle 2.69726e-014 -1.90833e-014
lhumerus -30.6976 12.9285 75.9506
lradius 20.1641
lwrist 13.2331
lhand -15.2738 27.711
lfingers 7.12502
lthumb 10.9007 57.4081
rfemur -16.1841 -1.6084 21.2293
rtibia 65.8541
rfoot -3.08301 -12.6333
rtoes 9.53972
lfemur -9.69085 12.099 -21.9253
ltibia 17.9236
lfoot -12.6678 10.2594
ltoes -42.7314
1023
root -57.9775 17.1827 -7.4733 1618.63 -75.1959 -1617.01
lowerback -2.39833 -1.0243 0.670365
upperback 0.0882048 -1.37263 -2.00511
thorax 1.3698 -0.681711 -2.4815
lowerneck -4.62117 -1.26413 0.29755
upperneck 5.92625 -2.11014 4.89301
head 2.75379 -0.911358 1.44608
rclavicle 5.87781e-014 7.95139e-016
rhumerus -34.3486 -5.21856 -88.478
rradius 24.5066
rwrist 15.3109
rhand -29.0801 -8.67221
rfingers 7.12502
rthumb -2.42903 -38.6381
lclavicle 5.87781e-014 7.95139e-016
lhumerus -30.4286 12.3712 76.2666
lradius 20.4886
lwrist 13.6566
lhand -15.2752 27.0713
lfingers 7.12502
lthumb 10.8993 56.7684
rfemur -17.5147 -1.53067 21.174
rtibia 66.0914
rfoot -4.4811 -11.9706
rtoes 7.32279
lfemur -9.65852 12.319 -22.1302
ltibia 17.8603
lfoot -12.0491 10.766
ltoes -43.0674
1024
root -58.0577 17.1702 -7.48295 1619.34 -74.9015 -1617.6
lowerback -2.22881 -1.14447 0.413217
upperback -0.0287362 -1.52981 -1.99697
thorax 1.15424 -0.764978 -2.32783
lowerneck -4.49052 -1.22673 0.181067
upperneck 5.83976 -2.06333 5.11256
head 2.70513 -0.888484 1.53998
rclavicle -1.03306e-014 1.90833e-014
rhumerus -34.5675 -4.98758 -88.4978
rradius 24.1707
rwrist 16.5234
rhand -30.4617 -7.97186
rfingers 7.12502
rthumb -3.7633 -37.9184
lclavicle -1.03306e-014 1.90833e-014
lhumerus -30.2559 11.7994 76.5361
lradius 20.8732
lwrist 14.0983
lhand -15.316 26.4116
lfingers 7.12502
lthumb 10.86 56.1108
rfemur -18.8173 -1.43152 21.0988
rtibia 66.1562
rfoot -5.56181 -11.9008
rtoes 4.24402
lfemur -9.63892 12.5555 -22.3556
ltibia 17.8772
lfoot -11.6419 11.2074
ltoes -43.4013
1025
root -58.1373 17.1583 -7.49293 1620.11 -74.5977 -1618.24
lowerback -2.05206 -1.26056 0.144196
upperback -0.159051 -1.68316 -1.99795
thorax 0.922694 -0.845897 -2.17551
lowerneck -4.46863 -1.21026 0.103962
upperneck 5.84562 -2.0515 5.2946
head 2.70755 -0.88026 1.61396
rclavicle 2.34814e-015 -7.95139e-015
rhumerus -34.7596 -4.78509 -88.5099
rradius 23.7366
rwrist 17.4922
rhand -31.893 -6.76269
rfingers 7.12502
rthumb -5.14545 -36.6802
lclavicle 2.34814e-015 -7.95139e-015
lhumerus -30.1053 11.2693 76.7612
lradius 21.286
lwrist 14.5136
lhand -15.3583 25.736
lfingers 7.12502
lthumb 10.8191 55.4374
rfemur -20.0971 -1.3193 21.0129
rtibia 66.0491
rfoot -6.32879 -12.5224
rtoes 1.22679
lfemur -9.62686 12.7604 -22.5844
ltibia 18.0076
lfoot -11.6633 11.5572
ltoes -43.6736
1026
root -58.2164 17.1462 -7.50315 1620.94 -74.289 -1618.92
lowerback -1.89772 -1.37376 -0.138762
upperback -0.278451 -1.83358 -2.00383
thorax 0.716749 -0.924427 -2.02029
lowerneck -4.57219 -1.22351 0.0708444
upperneck 5.93021 -2.08528 5.42683
head 2.75973 -0.89183 1.66273
rclavicle -9.72181e-015 -8.74653e-015
rhumerus -34.9226 -4.53705 -88.5638
rradius 23.2487
rwrist 18.3421
rhand -33.5339 -5.23569
rfingers 7.12502
rthumb -6.72965 -35.1087
lclavicle -9.72181e-015 -8.74653e-015
lhumerus -29.9221 10.8235 76.9412
lradius 21.7036
lwrist 14.8899
lhand -15.394 25.0432
lfingers 7.12502
lthumb 10.7847 54.7464
rfemur -21.358 -1.18807 20.9243
rtibia 65.7811
rfoot -6.8628 -13.7067
rtoes -1.15656
lfemur -9.65608 12.9048 -22.823
ltibia 18.2405
lfoot -11.9091 11.8875
ltoes -43.8742
1027
root -58.2955 17.1344 -7.51355 1621.78 -73.9779 -1619.6
lowerback -1.79665 -1.47989 -0.433432
upperback -0.372009 -1.97444 -2.00936
thorax 0.569263 -0.997103 -1.85934
lowerneck -4.69455 -1.25845 0.036659
upperneck 6.02501 -2.14814 5.54648
head 2.81979 -0.9176 1.70661
rclavicle 2.9122e-014 -9.54166e-015
rhumerus -35.0527 -4.30333 -88.6213
rradius 22.7299
rwrist 19.183
rhand -35.2764 -3.55502
rfingers 7.12502
rthumb -8.41149 -33.3675
lclavicle 2.9122e-014 -9.54166e-015
lhumerus -29.6926 10.4204 77.1046
lradius 22.1428
lwrist 15.2526
lhand -15.4171 24.3722
lfingers 7.12502
lthumb 10.7624 54.0765
rfemur -22.5824 -1.05158 20.839
rtibia 65.3556
rfoot -7.33071 -15.1874
rtoes -2.1837
lfemur -9.6869 12.9599 -23.0573
ltibia 18.5653
lfoot -12.5017 12.19
ltoes -44.0294
1028
root -58.3746 17.1217 -7.52421 1622.62 -73.6691 -1620.29
lowerback -1.78083 -1.57494 -0.752514
upperback -0.406184 -2.09792 -2.0127
thorax 0.533089 -1.06008 -1.68563
lowerneck -4.83707 -1.2982 -0.0146188
upperneck 6.11118 -2.2163 5.67131
head 2.88162 -0.945818 1.75507
rclavicle -4.54534e-014 1.35174e-014
rhumerus -35.1218 -4.08629 -88.6832
rradius 22.2315
rwrist 20.2791
rhand -37.1128 -2.19441
rfingers 7.12502
rthumb -10.1834 -31.9279
lclavicle -4.54534e-014 1.35174e-014
lhumerus -29.3667 10.0573 77.2762
lradius 22.58
lwrist 15.543
lhand -15.4263 23.7194
lfingers 7.12502
lthumb 10.7536 53.4241
rfemur -23.7564 -0.916362 20.7542
rtibia 64.7883
rfoot -7.98911 -16.6044
rtoes -2.08743
lfemur -9.73883 12.9892 -23.303
ltibia 18.9439
lfoot -13.1453 12.4994
ltoes -44.1851
1029
root -58.4526 17.1078 -7.53574 1623.42 -73.3546 -1620.94
lowerback -1.84023 -1.66443 -1.0805
upperback -0.377177 -2.21039 -2.0117
thorax 0.605778 -1.11714 -1.50622
lowerneck -5.00065 -1.3313 -0.0923808
upperneck 6.18209 -2.27345 5.80675
head 2.94292 -0.968481 1.81223
rclavicle -6.52262e-016 1.19271e-014
rhumerus -35.0784 -3.83537 -88.7953
rradius 22.0895
rwrist 21.1408
rhand -38.3043 -2.40328
rfingers 7.12502
rthumb -11.3328 -32.0771
lclavicle -6.52262e-016 1.19271e-014
lhumerus -28.94 9.68839 77.4599
lradius 23.0204
lwrist 15.8448
lhand -15.4256 23.0759
lfingers 7.12502
lthumb 10.7542 52.7806
rfemur -24.8809 -0.776772 20.6912
rtibia 64.0909
rfoot -9.09969 -17.6368
rtoes -1.35158
lfemur -9.79971 12.9674 -23.5415
ltibia 19.3519
lfoot -13.8191 12.8348
ltoes -44.3331
